<?xml version="1.0" encoding="UTF-8" standalone="no"?>
<svg width="120" height="120" viewBox="0 0 120 120" fill="none" xmlns="http://www.w3.org/2000/svg">
  <circle cx="60" cy="60" r="55" stroke="url(#paint0_linear)" stroke-width="2"/>
  <circle cx="60" cy="60" r="45" stroke="url(#paint1_linear)" stroke-width="1.5"/>
  <circle cx="60" cy="60" r="35" stroke="url(#paint2_linear)" stroke-width="1"/>
  <circle cx="60" cy="60" r="25" stroke="url(#paint3_linear)" stroke-width="0.5"/>
  
  <!-- Fractal elements -->
  <path d="M60 5 L60 115" stroke="rgba(99, 102, 241, 0.4)" stroke-width="0.5" />
  <path d="M5 60 L115 60" stroke="rgba(99, 102, 241, 0.4)" stroke-width="0.5" />
  <path d="M18.5 18.5 L101.5 101.5" stroke="rgba(99, 102, 241, 0.4)" stroke-width="0.5" />
  <path d="M101.5 18.5 L18.5 101.5" stroke="rgba(99, 102, 241, 0.4)" stroke-width="0.5" />
  
  <!-- Small planetary symbols -->
  <circle cx="60" cy="15" r="3" fill="#ffcf6f" /> <!-- Sun -->
  <circle cx="105" cy="60" r="2" fill="#e9a347" /> <!-- Jupiter -->
  <circle cx="60" cy="105" r="2" fill="#e34a33" /> <!-- Mars -->
  <circle cx="15" cy="60" r="2" fill="#5b7ebd" /> <!-- Neptune -->
  
  <!-- Center vortex -->
  <circle cx="60" cy="60" r="12" fill="url(#paint4_radial)" />
  
  <!-- FRC text -->
  <text x="60" y="63" font-family="Space Mono, monospace" font-size="10" fill="white" text-anchor="middle">FRC</text>
  
  <defs>
    <linearGradient id="paint0_linear" x1="60" y1="5" x2="60" y2="115" gradientUnits="userSpaceOnUse">
      <stop stop-color="#6366F1"/>
      <stop offset="1" stop-color="#A78BFA"/>
    </linearGradient>
    <linearGradient id="paint1_linear" x1="60" y1="15" x2="60" y2="105" gradientUnits="userSpaceOnUse">
      <stop stop-color="#A78BFA"/>
      <stop offset="1" stop-color="#22D3EE"/>
    </linearGradient>
    <linearGradient id="paint2_linear" x1="60" y1="25" x2="60" y2="95" gradientUnits="userSpaceOnUse">
      <stop stop-color="#22D3EE"/>
      <stop offset="1" stop-color="#6366F1"/>
    </linearGradient>
    <linearGradient id="paint3_linear" x1="60" y1="35" x2="60" y2="85" gradientUnits="userSpaceOnUse">
      <stop stop-color="#6366F1"/>
      <stop offset="1" stop-color="#A78BFA"/>
    </linearGradient>
    <radialGradient id="paint4_radial" cx="0" cy="0" r="1" gradientUnits="userSpaceOnUse" gradientTransform="translate(60 60) scale(12)">
      <stop offset="0" stop-color="#ffffff"/>
      <stop offset="0.5" stop-color="#6366F1"/>
      <stop offset="1" stop-color="#22D3EE" stop-opacity="0.5"/>
    </radialGradient>
  </defs>
</svg>